<svg width="48" height="48" viewBox="0 0 48 48" fill="none" xmlns="http://www.w3.org/2000/svg">
  <defs>
    <linearGradient id="opsGradPrimary" x1="0%" y1="0%" x2="100%" y2="100%">
      <stop offset="0%" stopColor="#8b5cf6" />
      <stop offset="50%" stopColor="#6d28d9" />
      <stop offset="100%" stopColor="#4338ca" />
    </linearGradient>
    <linearGradient id="opsGradAccent" x1="0%" y1="0%" x2="100%" y2="100%">
      <stop offset="0%" stopColor="#38bdf8" />
      <stop offset="100%" stopColor="#818cf8" />
    </linearGradient>
  </defs>

  <!-- Outer Rounded Container -->
  <rect x="2" y="2" width="44" height="44" rx="12" fill="url(#opsGradPrimary)" />
  <rect x="3.5" y="3.5" width="41" height="41" rx="10.5" stroke="rgba(255, 255, 255, 0.25)" strokeWidth="1.5" />

  <!-- Letter O -->
  <path d="M13 18C13 15.2386 15.2386 13 18 13C20.7614 13 23 15.2386 23 18V30C23 32.7614 20.7614 35 18 35C15.2386 35 13 32.7614 13 30V18Z" stroke="#ffffff" stroke-width="3.2" stroke-linecap="round" stroke-linejoin="round" />
  <circle cx="18" cy="24" r="2" fill="url(#opsGradAccent)" />

  <!-- Letter P & S -->
  <path d="M27 34V14H33C35.2091 14 37 15.7909 37 18C37 20.2091 35.2091 22 33 22H27" stroke="#ffffff" stroke-width="3.2" stroke-linecap="round" stroke-linejoin="round" />
  <path d="M36 26C36 26 34.5 25 32 25C29.5 25 28 26.5 28 28.5C28 31 31 31.5 33 32C35 32.5 36 33.5 36 35C36 37 34 38 31.5 38C29 38 27.5 37 27.5 37" stroke="url(#opsGradAccent)" stroke-width="3" stroke-linecap="round" stroke-linejoin="round" />
</svg>
